# AST/ASF file generated using VICON BodyLanguage
# -----------------------------------------------
:version 1.10
:name VICON
:units
  mass 1.0
  length 0.45
  angle deg
:documentation
   .ast/.asf automatically generated from VICON data using
   VICON BodyBuilder and BodyLanguage model FoxedUp or BRILLIANT.MOD
:root
   order TX TY TZ RX RY RZ
   axis XYZ
   position 0 0 0  
   orientation 0 0 0 
:bonedata
  begin
     id 1 
     name lhipjoint
     direction 0.660183 -0.676772 0.325788 
     length 2.75133 
     axis 0 0 0  XYZ
  end
  begin
     id 2 
     name lfemur
     direction 0.34202 -0.939693 0  
     length 7.70317  
     axis 0 0 20  XYZ
    dof rx ry rz
    limits (-160.0 20.0)
           (-70.0 70.0)
           (-60.0 70.0)
  end
  begin
     id 3 
     name ltibia
     direction 0.342105 -0.939662 0   
     length 7.18701   
     axis 0 0 20   XYZ
    dof rx
    limits (-10.0 170.0)
  end
  begin
     id 4 
     name lfoot
     direction 0.14163 -0.389126 0.910232   
     length 2.41719   
     axis -90 7.62852e-016 20   XYZ
    dof rx rz
    limits (-45.0 90.0)
           (-70.0 20.0)
  end
  begin
     id 5 
     name ltoes
     direction 1.53533e-011 -4.21926e-011 1   
     length 1.18611   
     axis -90 7.62852e-016 20   XYZ
    dof rx
    limits (-90.0 20.0)
  end
  begin
     id 6 
     name rhipjoint
     direction -0.6658 -0.67229 0.323631   
     length 2.76968  
     axis 0 0 0  XYZ 
  end
  begin
     id 7 
     name rfemur
     direction -0.34202 -0.939693 0   
     length 7.92547   
     axis 0 0 -20   XYZ
    dof rx ry rz
    limits (-160.0 20.0)
           (-70.0 70.0)
           (-70.0 60.0)
  end
  begin
     id 8 
     name rtibia
     direction -0.342022 -0.939692 0   
     length 7.22641   
     axis 0 0 -20   XYZ
    dof rx
    limits (-10.0 170.0)
 end
 begin
     id 9 
     name rfoot
     direction -0.105675 -0.29034 0.951071   
     length 2.48149  
     axis -90 -7.62852e-016 -20   XYZ
    dof rx rz
    limits (-45.0 90.0)
           (-20.0 70.0)
  end
  begin
     id 10 
     name rtoes
     direction -1.5349e-011 -4.21859e-011 1   
     length 1.23343   
     axis -90 -7.62852e-016 -20   XYZ
    dof rx
    limits (-90.0 20.0)
  end
  begin
     id 11 
     name lowerback
     direction 0.0104173 0.993624 -0.112266   
     length 2.00527   
     axis 0 0 0   XYZ
    dof rx ry rz
    limits (-20.0 45.0)
           (-30.0 30.0)
           (-30.0 30.0)
  end
  begin
     id 12 
     name upperback
     direction 0.00733149 0.999856 -0.0152913   
     length 2.01385   
     axis 0 0 0   XYZ
    dof rx ry rz
    limits (-20.0 45.0)
           (-30.0 30.0)
           (-30.0 30.0)
  end
  begin
     id 13 
     name thorax
     direction 0.0026304 0.999318 0.036841   
     length 2.03734   
     axis 0 0 0   XYZ
    dof rx ry rz
    limits (-20.0 45.0)
           (-30.0 30.0)
           (-30.0 30.0)
  end
  begin
     id 14 
     name lowerneck
     direction 0.0293154 0.998757 0.0403082   
     length 1.65303   
     axis 0 0 0   XYZ
    dof rx ry rz
    limits (-20.0 45.0)
           (-30.0 30.0)
           (-30.0 30.0)
  end
  begin
     id 15 
     name upperneck
     direction -0.0376619 0.998184 -0.0470083   
     length 1.60926   
     axis 0 0 0   XYZ
    dof rx ry rz
    limits (-20.0 45.0)
           (-30.0 30.0)
           (-30.0 30.0)
  end
  begin
     id 16
     name head
     direction -0.0170133 0.999635 -0.0209778  
     length 1.73625  
     axis 0 0 0   XYZ
    dof rx ry rz
    limits (-20.0 45.0)
           (-30.0 30.0)
           (-30.0 30.0)
  end
  begin
     id 17 
     name lclavicle
     direction 0.919857 0.39181 -0.0186333  
     length 3.75313  
     axis 0 0 0   XYZ
    dof ry rz
    limits (-20.0 10.0)
           (0.0 20.0)
  end
  begin
     id 18 
     name lhumerus
     direction 1 -4.48988e-011 1.44029e-027   
     length 5.49313   
     axis 180 -30 -90   XYZ
    dof rx ry rz
    limits (-60.0 90.0)
           (-90.0 90.0)
           (-90.0 90.0)
  end
  begin
     id 19
     name lradius
     direction 1 -4.48924e-011 7.46281e-027   
     length 3.29037   
     axis 180 -30 -90   XYZ
    dof rx
    limits (-10.0 170.0)
  end
  begin
     id 20
     name lwrist
     direction 1 -4.48955e-011 2.19879e-026   
     length 1.64519   
     axis -1.34358e-014 90 90   XYZ
    dof ry
    limits (-180.0 0.0)
 end
  begin
     id 21 
     name lhand
     direction 1 -4.48978e-011 4.39747e-026   
     length 0.729656   
     axis -2.80598e-014 90 90   XYZ
    dof rx rz
    limits (-90.0 90.0)
           (-45.0 45.0)
  end
  begin
     id 22 
     name lfingers
     direction 1 -4.49071e-011 8.79411e-026   
     length 0.588268   
     axis -5.61193e-014 90 90   XYZ
    dof rx
    limits (0.0 90.0)
  end
  begin
     id 23
     name lthumb
     direction 0.707107 -6.34817e-011 0.707107   
     length 0.844638   
     axis -90 45 -9.86923e-015   XYZ
    dof rx rz
    limits (-45.0 45.0)
           (-45.0 45.0)
  end
  begin
     id 24 
     name rclavicle
     direction -0.919898 0.388279 0.0550233   
     length 3.7171  
     axis 0 0 0   XYZ 
    dof ry rz
    limits (-10.0 20.0)
           (-20.0 0.0)
  end
  begin
     id 25 
     name rhumerus
     direction -1 -4.48968e-011 9.98372e-028  
     length 5.23684   
     axis 180 30 90   XYZ
    dof rx ry rz
    limits (-90.0 60.0)
           (-90.0 90.0)
           (-90.0 90.0)
  end
  begin
     id 26 
     name rradius
     direction -1 -4.48956e-011 1.01023e-026   
     length 3.38251   
     axis 180 30 90   XYZ
    dof rx
    limits (-10.0 170.0)
  end
  begin
     id 27 
     name rwrist
     direction -1 -4.4892e-011 2.19886e-026   
     length 1.69126   
     axis -1.34358e-014 -90 -90   XYZ
    dof ry
    limits (-180.0 0.0)
  end
  begin
     id 28
     name rhand
     direction -1 -4.49024e-011 4.39727e-026   
     length 0.691454   
     axis -2.80598e-014 -90 -90   XYZ
    dof rx rz
    limits (-90.0 90.0)
           (-45.0 45.0)
  end
  begin
     id 29
     name rfingers
     direction -1 -4.49097e-011 8.79388e-026   
     length 0.557468   
     axis -5.61193e-014 -90 -90   XYZ
    dof rx
    limits (0.0 90.0)
  end
  begin
     id 30
     name rthumb
     direction -0.707107 -6.34938e-011 0.707107   
     length 0.800416   
     axis -90 -45 9.86923e-015   XYZ
    dof rx rz
    limits (-45.0 45.0)
           (-45.0 45.0)
  end
:hierarchy
  begin
    root lhipjoint rhipjoint lowerback
    lhipjoint lfemur
    lfemur ltibia
    ltibia lfoot
    lfoot ltoes
    rhipjoint rfemur
    rfemur rtibia
    rtibia rfoot
    rfoot rtoes
    lowerback upperback
    upperback thorax
    thorax lowerneck lclavicle rclavicle
    lowerneck upperneck
    upperneck head
    lclavicle lhumerus
    lhumerus lradius
    lradius lwrist
    lwrist lhand lthumb
    lhand lfingers
    rclavicle rhumerus
    rhumerus rradius
    rradius rwrist
    rwrist rhand rthumb
    rhand rfingers
  end

#!OML:ASF H:\BabyWalks\Project 1\Capture day 1\Session 1\baby.ASF
:FULLY-SPECIFIED
:DEGREES
91
root -21.202 18.124 -21.4163 -98.8029 86.9535 -107.966
lowerback 18.1548 -1.93023 -5.15911
upperback 5.48728 -3.14441 -0.57647
thorax -3.99182 -1.41086 2.95703
lowerneck -4.21714 1.53836 2.31339
upperneck -5.31661 2.17631 2.38385
head -0.933771 1.07975 0.35617
rclavicle 3.18055e-015 -2.8625e-014
rhumerus -56.0637 18.1099 -91.4252
rradius 51.1993
rwrist -4.04953
rhand -6.71165 -17.0016
rfingers 7.12502
rthumb 19.1481 -46.079
lclavicle 3.18055e-015 -2.8625e-014
lhumerus -35.2755 -5.33127 75.9752
lradius 65.6854
lwrist -0.714361
lhand -19.0413 7.98322
lfingers 7.12502
lthumb 7.26529 37.8385
rfemur -22.6264 4.95062 20.6561
rtibia 49.3288
rfoot -16.0512 5.2091
rtoes -23.0334
lfemur -13.1934 -5.78592 -15.6979
ltibia 29.3096
lfoot -22.2196 -8.93145
ltoes -2.52472
92
root -21.0417 18.1549 -21.4089 -101.687 86.9202 -110.92
lowerback 18.1759 -2.00523 -5.12111
upperback 5.3996 -3.24157 -0.492357
thorax -4.08581 -1.45698 3.04813
lowerneck -4.26959 1.52313 2.32493
upperneck -5.25214 2.14755 2.31029
head -0.904084 1.06637 0.332455
rclavicle -3.26007e-014 1.59028e-014
rhumerus -56.3523 18.0978 -91.2546
rradius 51.0472
rwrist -4.05683
rhand -5.76558 -17.1768
rfingers 7.12502
rthumb 20.0577 -46.1615
lclavicle -3.26007e-014 1.59028e-014
lhumerus -35.0449 -6.04446 76.0893
lradius 67.9129
lwrist -0.343571
lhand -19.1977 7.51761
lfingers 7.12502
lthumb 7.11427 37.378
rfemur -23.0896 5.02677 20.7544
rtibia 47.2
rfoot -16.2993 4.24798
rtoes -22.248
lfemur -12.511 -5.77339 -15.6891
ltibia 28.8463
lfoot -21.7482 -9.29959
ltoes -2.90768
93
root -20.8795 18.185 -21.4011 -104.738 86.8769 -114.048
lowerback 18.1777 -2.08075 -5.05774
upperback 5.30973 -3.3341 -0.409154
thorax -4.17396 -1.50108 3.12241
lowerneck -4.33709 1.49531 2.33768
upperneck -5.14831 2.09977 2.23817
head -0.859863 1.04386 0.309188
rclavicle 2.78299e-014 3.65764e-014
rhumerus -56.6194 18.0509 -91.0669
rradius 50.8833
rwrist -4.04553
rhand -4.93063 -17.3187
rfingers 7.12502
rthumb 20.8601 -46.2173
lclavicle 2.78299e-014 3.65764e-014
lhumerus -34.8448 -6.76109 76.1709
lradius 70.0462
lwrist -0.000501796
lhand -19.2195 6.88927
lfingers 7.12502
lthumb 7.09325 36.7504
rfemur -23.4922 5.13102 20.8404
rtibia 44.9123
rfoot -16.4837 3.38246
rtoes -21.3444
lfemur -11.8601 -5.74751 -15.6686
ltibia 28.4154
lfoot -21.2561 -9.72048
ltoes -3.33055
94
root -20.7155 18.214 -21.3929 -108.101 86.8166 -117.491
lowerback 18.1652 -2.15762 -4.96918
upperback 5.21981 -3.42291 -0.323729
thorax -4.25635 -1.54363 3.18359
lowerneck -4.42346 1.45556 2.34854
upperneck -5.0013 2.03379 2.16767
head -0.799467 1.01272 0.286945
rclavicle -1.66979e-014 -5.56597e-015
rhumerus -56.868 17.9705 -90.8624
rradius 50.7073
rwrist -4.01652
rhand -4.21071 -17.4201
rfingers 7.12502
rthumb 21.5516 -46.241
lclavicle -1.66979e-014 -5.56597e-015
lhumerus -34.6717 -7.47589 76.2305
lradius 72.0631
lwrist 0.371085
lhand -19.16 6.15849
lfingers 7.12502
lthumb 7.15074 36.0177
rfemur -23.833 5.26484 20.9102
rtibia 42.4951
rfoot -16.6234 2.61556
rtoes -20.4019
lfemur -11.2326 -5.72031 -15.6343
ltibia 28.0056
lfoot -20.7404 -10.1951
ltoes -3.7748
95
root -20.5496 18.2417 -21.3846 -111.65 86.7387 -121.126
lowerback 18.1343 -2.23407 -4.85246
upperback 5.1301 -3.50506 -0.236624
thorax -4.33113 -1.58333 3.22853
lowerneck -4.53381 1.40368 2.36104
upperneck -4.80859 1.94894 2.09352
head -0.721379 0.972613 0.263551
rclavicle 1.82882e-014 1.90833e-014
rhumerus -57.1018 17.8569 -90.642
rradius 50.5265
rwrist -3.96033
rhand -3.61724 -17.495
rfingers 7.12502
rthumb 22.1215 -46.2495
lclavicle 1.82882e-014 1.90833e-014
lhumerus -34.5287 -8.18537 76.2799
lradius 73.9579
lwrist 0.765723
lhand -19.0659 5.45064
lfingers 7.12502
lthumb 7.24154 35.3067
rfemur -24.1249 5.42844 20.958
rtibia 39.9882
rfoot -16.7252 1.98485
rtoes -19.4723
lfemur -10.6303 -5.70212 -15.5891
ltibia 27.619
lfoot -20.2045 -10.7099
ltoes -4.21592
96
root -20.382 18.2674 -21.3761 -115.403 86.6388 -124.961
lowerback 18.0853 -2.31025 -4.71259
upperback 5.04502 -3.58117 -0.146252
thorax -4.39326 -1.62064 3.26162
lowerneck -4.67303 1.3435 2.38229
upperneck -4.56851 1.8498 2.00701
head -0.624396 0.925787 0.235253
rclavicle 3.93594e-014 -3.18055e-015
rhumerus -57.321 17.716 -90.4087
rradius 50.3483
rwrist -3.8855
rhand -3.13978 -17.5702
rfingers 7.12502
rthumb 22.5798 -46.2697
lclavicle 3.93594e-014 -3.18055e-015
lhumerus -34.416 -8.88101 76.3259
lradius 75.7251
lwrist 1.18202
lhand -18.9502 4.85843
lfingers 7.12502
lthumb 7.35323 34.7106
rfemur -24.3687 5.62871 20.9809
rtibia 37.4425
rfoot -16.8017 1.44913
rtoes -18.6718
lfemur -10.0506 -5.69412 -15.5344
ltibia 27.2639
lfoot -19.6545 -11.2614
ltoes -4.66235
97
root -20.2128 18.2902 -21.3673 -119.222 86.5152 -128.858
lowerback 18.0146 -2.3845 -4.55063
upperback 4.96698 -3.64902 -0.0520495
thorax -4.43841 -1.65462 3.28326
lowerneck -4.83179 1.27555 2.41658
upperneck -4.29359 1.73762 1.90037
head -0.514049 0.872552 0.198876
rclavicle 3.02153e-014 9.54166e-015
rhumerus -57.527 17.5518 -90.165
rradius 50.1734
rwrist -3.77404
rhand -2.77034 -17.6318
rfingers 7.12502
rthumb 22.9344 -46.2877
lclavicle 3.02153e-014 9.54166e-015
lhumerus -34.3351 -9.55068 76.3739
lradius 77.3625
lwrist 1.6095
lhand -18.8184 4.45346
lfingers 7.12502
lthumb 7.48041 34.3012
rfemur -24.573 5.87308 20.9766
rtibia 34.9185
rfoot -16.8084 1.01756
rtoes -17.9672
lfemur -9.49766 -5.69416 -15.4713
ltibia 26.9549
lfoot -19.0997 -11.8429
ltoes -5.10384
